<?xml version="1.0" encoding="UTF-8" standalone="no"?>
<!-- Created with Inkscape (http://www.inkscape.org/) -->

<svg
   width="102.05167mm"
   height="118.92886mm"
   viewBox="0 0 102.05167 118.92886"
   version="1.1"
   id="svg1"
   xml:space="preserve"
   inkscape:version="1.3.2 (091e20e, 2023-11-25, custom)"
   sodipodi:docname="fish.svg"
   xmlns:inkscape="http://www.inkscape.org/namespaces/inkscape"
   xmlns:sodipodi="http://sodipodi.sourceforge.net/DTD/sodipodi-0.dtd"
   xmlns="http://www.w3.org/2000/svg"
   xmlns:svg="http://www.w3.org/2000/svg"><sodipodi:namedview
     id="namedview1"
     pagecolor="#ffffff"
     bordercolor="#000000"
     borderopacity="0.25"
     inkscape:showpageshadow="2"
     inkscape:pageopacity="0.0"
     inkscape:pagecheckerboard="0"
     inkscape:deskcolor="#d1d1d1"
     inkscape:document-units="mm"
     inkscape:zoom="0.81784475"
     inkscape:cx="-127.1635"
     inkscape:cy="236.59747"
     inkscape:window-width="2560"
     inkscape:window-height="1369"
     inkscape:window-x="-8"
     inkscape:window-y="1072"
     inkscape:window-maximized="1"
     inkscape:current-layer="layer1" /><defs
     id="defs1" /><g
     inkscape:label="Layer 1"
     inkscape:groupmode="layer"
     id="layer1"
     transform="translate(-56.206531,-79.116284)"><path
       style="fill:#201814;fill-opacity:1"
       d="m 65.457376,197.18114 c 0.49071,-0.38599 0.70927,-0.87757 0.84496,-1.90045 0.5162,-3.89131 4.35767,-7.92065 10.56102,-11.07752 2.00315,-1.0194 2.01793,-1.10508 1.19665,-6.936 -0.36888,-2.61893 -0.19482,-3.30843 0.95664,-3.78954 2.32488,-0.97139 3.01123,0.29356 3.65503,6.73621 0.32389,3.24126 0.32389,3.24126 4.15795,5.039 4.79091,2.24639 11.48063,5.79614 16.048424,8.51573 5.85885,3.48827 6.96779,2.61023 5.75028,-4.55294 -2.24972,-13.23606 -10.943404,-22.28347 -24.257164,-25.24413 -5.01285,-1.11473 -9.76242,-11.43633 -8.36619,-18.18114 1.90502,-9.20271 7.338,-11.3157 22.46392,-8.73661 6.673774,1.13793 10.318754,1.59025 10.318754,1.2805 0,-0.0973 -0.43159,-1.03392 -0.95909,-2.08139 -6.78883,-13.48082 -6.92381,-31.67274 -0.34071,-45.921817 1.03246,-2.234762 1.03246,-2.234762 -1.41356,-2.044417 -41.667864,3.242518 -60.845674,42.509144 -38.500654,78.830204 1.44921,2.35564 1.44921,2.35564 -0.23183,4.83504 -7.07432,10.4341 -8.57234,30.48998 -1.88443,25.22927 z m 24.63896,-46.73355 c 4.69545,-0.84826 15.528254,-7.55384 13.263294,-8.21007 -1.41719,-0.4106 -11.945394,-2.0289 -13.886564,-2.13451 -2.51355,-0.13676 -2.51355,-0.13676 -3.90714,4.19092 -2.14837,6.67159 -1.7009,7.27938 4.53041,6.15366 z m 30.597554,-12.14716 c 12.76324,-1.75069 24.91832,-8.40547 34.06587,-18.6507 5.12125,-5.73579 4.7652,-8.48589 -2.0315,-15.69074 -8.55143,-9.064972 -21.70214,-14.686488 -36.69741,-15.687003 -2.67867,-0.178726 -2.67867,-0.178726 -4.29084,3.097949 -6.63109,13.477454 -6.57619,30.154924 0.14318,43.493344 2.16542,4.29851 2.26054,4.33562 8.8107,3.43715 z m 7.63547,-25.04318 c -1.29654,-0.38845 -3.01029,-1.84386 -3.64414,-3.0948 -3.30147,-6.51567 5.1519,-12.422173 10.21662,-7.1385 4.42613,4.61748 -0.37355,12.09055 -6.57248,10.2333 z m 3.30906,-4.47464 c 1.29095,-1.01545 0.73831,-3.19495 -0.90144,-3.5551 -1.40155,-0.30783 -2.85241,1.08359 -2.51823,2.41506 0.40259,1.60405 2.10729,2.17236 3.41967,1.14004 z m -74.734674,8.40481 c 5.39381,-14.21905 18.65721,-25.739046 35.34888,-30.702457 2.04324,-0.607573 2.04324,-0.607573 -1.04216,-3.366712 -6.76015,-6.045305 -8.8415,-5.608717 -18.2945,3.837485 -9.1927,9.186086 -14.56839,18.792714 -16.3895,29.288824 -0.50519,2.91172 -0.43557,3.08569 0.37728,0.94286 z"
       id="path1" /></g></svg>
